{"buffers":[{"uri":"Project_1.bin","byteLength":2078820},{"byteLength":3366944,"extensions":{"EXT_meshopt_compression":{"fallback":true}}}],"asset":{"version":"2.0","generator":"gltfpack 0.18"},"extensionsUsed":["EXT_meshopt_compression","KHR_texture_basisu"],"extensionsRequired":["EXT_meshopt_compression","KHR_texture_basisu"],"bufferViews":[{"buffer":1,"byteOffset":0,"byteLength":1110816,"byteStride":12,"target":34962,"extensions":{"EXT_meshopt_compression":{"buffer":0,"byteOffset":0,"byteLength":850124,"byteStride":12,"mode":"ATTRIBUTES","count":92568}}},{"buffer":1,"byteOffset":1110816,"byteLength":1110816,"byteStride":12,"target":34962,"extensions":{"EXT_meshopt_compression":{"buffer":0,"byteOffset":850124,"byteLength":604223,"byteStride":12,"mode":"ATTRIBUTES","count":92568}}},{"buffer":1,"byteOffset":2221632,"byteLength":734408,"byteStride":8,"target":34962,"extensions":{"EXT_meshopt_compression":{"buffer":0,"byteOffset":1454348,"byteLength":552051,"byteStride":8,"mode":"ATTRIBUTES","count":91801}}},{"buffer":1,"byteOffset":2956040,"byteLength":410904,"target":34963,"extensions":{"EXT_meshopt_compression":{"buffer":0,"byteOffset":2006400,"byteLength":72420,"byteStride":2,"mode":"TRIANGLES","count":205452}}}],"accessors":[{"bufferView":0,"byteOffset":0,"componentType":5126,"count":7265,"type":"VEC3","min":[-15.7236271,-18.3875351,-14.894475],"max":[3.67325544,0.686881065,4.11311865]},{"bufferView":1,"byteOffset":0,"componentType":5126,"count":7265,"type":"VEC3"},{"bufferView":2,"byteOffset":0,"componentType":5126,"count":7265,"type":"VEC2"},{"bufferView":3,"byteOffset":0,"componentType":5123,"count":10968,"type":"SCALAR"},{"bufferView":0,"byteOffset":87180,"componentType":5126,"count":1450,"type":"VEC3","min":[-4.58145237,-1.6385386,-6.47823763],"max":[3.85367632,6.03526974,1.06526613]},{"bufferView":1,"byteOffset":87180,"componentType":5126,"count":1450,"type":"VEC3"},{"bufferView":2,"byteOffset":58120,"componentType":5126,"count":1450,"type":"VEC2"},{"bufferView":3,"byteOffset":21936,"componentType":5123,"count":2112,"type":"SCALAR"},{"bufferView":0,"byteOffset":104580,"componentType":5126,"count":1450,"type":"VEC3","min":[-4.58145237,-1.6385386,-6.47823763],"max":[3.85367632,6.03526974,1.06526613]},{"bufferView":1,"byteOffset":104580,"componentType":5126,"count":1450,"type":"VEC3"},{"bufferView":2,"byteOffset":69720,"componentType":5126,"count":1450,"type":"VEC2"},{"bufferView":3,"byteOffset":26160,"componentType":5123,"count":2112,"type":"SCALAR"},{"bufferView":0,"byteOffset":121980,"componentType":5126,"count":1450,"type":"VEC3","min":[-4.58145237,-1.6385386,-6.47823763],"max":[3.85367632,6.03526974,1.06526613]},{"bufferView":1,"byteOffset":121980,"componentType":5126,"count":1450,"type":"VEC3"},{"bufferView":2,"byteOffset":81320,"componentType":5126,"count":1450,"type":"VEC2"},{"bufferView":3,"byteOffset":30384,"componentType":5123,"count":2112,"type":"SCALAR"},{"bufferView":0,"byteOffset":139380,"componentType":5126,"count":7554,"type":"VEC3","min":[-104.572739,0.140556335,-237.247513],"max":[104.572746,165.563309,237.433823]},{"bufferView":1,"byteOffset":139380,"componentType":5126,"count":7554,"type":"VEC3"},{"bufferView":2,"byteOffset":92920,"componentType":5126,"count":7554,"type":"VEC2"},{"bufferView":3,"byteOffset":34608,"componentType":5123,"count":22047,"type":"SCALAR"},{"bufferView":0,"byteOffset":230028,"componentType":5126,"count":581,"type":"VEC3","min":[-85.0690765,59.0287323,-226.860764],"max":[85.0691299,154.787521,228.294235]},{"bufferView":1,"byteOffset":230028,"componentType":5126,"count":581,"type":"VEC3"},{"bufferView":3,"byteOffset":78702,"componentType":5123,"count":1848,"type":"SCALAR"},{"bufferView":0,"byteOffset":237000,"componentType":5126,"count":189,"type":"VEC3","min":[-1.47000003,-0.44996351,-1.47000003],"max":[1.47000003,0.44996351,1.47000003]},{"bufferView":1,"byteOffset":237000,"componentType":5126,"count":189,"type":"VEC3"},{"bufferView":2,"byteOffset":153352,"componentType":5126,"count":189,"type":"VEC2"},{"bufferView":3,"byteOffset":82398,"componentType":5123,"count":960,"type":"SCALAR"},{"bufferView":0,"byteOffset":239268,"componentType":5126,"count":736,"type":"VEC3","min":[-2.27832365,0.00226196647,-0.366461992],"max":[0.300752968,0.796144605,1.37016952]},{"bufferView":1,"byteOffset":239268,"componentType":5126,"count":736,"type":"VEC3"},{"bufferView":2,"byteOffset":154864,"componentType":5126,"count":736,"type":"VEC2"},{"bufferView":3,"byteOffset":84318,"componentType":5123,"count":2040,"type":"SCALAR"},{"bufferView":0,"byteOffset":248100,"componentType":5126,"count":1166,"type":"VEC3","min":[-14.4000006,2.97788053e-14,-18.3499985],"max":[12.499999,1.04999995,35.820507]},{"bufferView":1,"byteOffset":248100,"componentType":5126,"count":1166,"type":"VEC3"},{"bufferView":2,"byteOffset":160752,"componentType":5126,"count":1166,"type":"VEC2"},{"bufferView":3,"byteOffset":88398,"componentType":5123,"count":1689,"type":"SCALAR"},{"bufferView":0,"byteOffset":262092,"componentType":5126,"count":93,"type":"VEC3","min":[-14.4000006,1,-22.7499962],"max":[13.9999981,1.00000691,25.1050034]},{"bufferView":1,"byteOffset":262092,"componentType":5126,"count":93,"type":"VEC3"},{"bufferView":2,"byteOffset":170080,"componentType":5126,"count":93,"type":"VEC2"},{"bufferView":3,"byteOffset":91776,"componentType":5123,"count":120,"type":"SCALAR"},{"bufferView":0,"byteOffset":263208,"componentType":5126,"count":8877,"type":"VEC3","min":[-37.0380821,-0.634392321,-18.5893841],"max":[28.9231853,5.20737171,18.1061573]},{"bufferView":1,"byteOffset":263208,"componentType":5126,"count":8877,"type":"VEC3"},{"bufferView":2,"byteOffset":170824,"componentType":5126,"count":8877,"type":"VEC2"},{"bufferView":3,"byteOffset":92016,"componentType":5123,"count":48021,"type":"SCALAR"},{"bufferView":0,"byteOffset":369732,"componentType":5126,"count":115,"type":"VEC3","min":[-25.3227711,3.03202796e-14,-32.9349747],"max":[26.5923138,1.04499996,35.991127]},{"bufferView":1,"byteOffset":369732,"componentType":5126,"count":115,"type":"VEC3"},{"bufferView":2,"byteOffset":241840,"componentType":5126,"count":115,"type":"VEC2"},{"bufferView":3,"byteOffset":188058,"componentType":5123,"count":387,"type":"SCALAR"},{"bufferView":0,"byteOffset":371112,"componentType":5126,"count":5773,"type":"VEC3","min":[-33.7713699,-17.1212921,-24.9432602],"max":[10.7582636,4.86272717,4.2768054]},{"bufferView":1,"byteOffset":371112,"componentType":5126,"count":5773,"type":"VEC3"},{"bufferView":2,"byteOffset":242760,"componentType":5126,"count":5773,"type":"VEC2"},{"bufferView":3,"byteOffset":188832,"componentType":5123,"count":25290,"type":"SCALAR"},{"bufferView":0,"byteOffset":440388,"componentType":5126,"count":336,"type":"VEC3","min":[-1.73367858,-0.16062963,-1.87721109],"max":[6.60370111,1.51165271,10.8981514]},{"bufferView":1,"byteOffset":440388,"componentType":5126,"count":336,"type":"VEC3"},{"bufferView":2,"byteOffset":288944,"componentType":5126,"count":336,"type":"VEC2"},{"bufferView":3,"byteOffset":239412,"componentType":5123,"count":504,"type":"SCALAR"},{"bufferView":0,"byteOffset":444420,"componentType":5126,"count":40572,"type":"VEC3","min":[-35.5896454,-32.3374748,-0.474665344],"max":[12.1524715,7.38888741,0.0129887806]},{"bufferView":1,"byteOffset":444420,"componentType":5126,"count":40572,"type":"VEC3"},{"bufferView":2,"byteOffset":291632,"componentType":5126,"count":40572,"type":"VEC2"},{"bufferView":3,"byteOffset":240420,"componentType":5123,"count":60858,"type":"SCALAR"},{"bufferView":0,"byteOffset":931284,"componentType":5126,"count":307,"type":"VEC3","min":[-9.80000114,1.00000107,-11.6499996],"max":[5.39999866,8.19454002,11.6500015]},{"bufferView":1,"byteOffset":931284,"componentType":5126,"count":307,"type":"VEC3"},{"bufferView":2,"byteOffset":616208,"componentType":5126,"count":307,"type":"VEC2"},{"bufferView":3,"byteOffset":362136,"componentType":5123,"count":432,"type":"SCALAR"},{"bufferView":0,"byteOffset":934968,"componentType":5126,"count":1676,"type":"VEC3","min":[-9.62000465,1.00000107,-11.6299992],"max":[5.21999931,7.25000095,11.6300011]},{"bufferView":1,"byteOffset":934968,"componentType":5126,"count":1676,"type":"VEC3"},{"bufferView":2,"byteOffset":618664,"componentType":5126,"count":1676,"type":"VEC2"},{"bufferView":3,"byteOffset":363000,"componentType":5123,"count":2718,"type":"SCALAR"},{"bufferView":0,"byteOffset":955080,"componentType":5126,"count":7902,"type":"VEC3","min":[-9.8399992,1.0000056,-13.8400002],"max":[6.00000095,7.64500141,18.7152081]},{"bufferView":1,"byteOffset":955080,"componentType":5126,"count":7902,"type":"VEC3"},{"bufferView":2,"byteOffset":632072,"componentType":5126,"count":7902,"type":"VEC2"},{"bufferView":3,"byteOffset":368436,"componentType":5123,"count":11448,"type":"SCALAR"},{"bufferView":0,"byteOffset":1049904,"componentType":5126,"count":4040,"type":"VEC3","min":[-9.70000267,-0.175225735,-11.71],"max":[5.40000439,7.25000048,12.6602268]},{"bufferView":1,"byteOffset":1049904,"componentType":5126,"count":4040,"type":"VEC3"},{"bufferView":2,"byteOffset":695288,"componentType":5126,"count":4040,"type":"VEC2"},{"bufferView":3,"byteOffset":391332,"componentType":5123,"count":8178,"type":"SCALAR"},{"bufferView":0,"byteOffset":1098384,"componentType":5126,"count":186,"type":"VEC3","min":[-9.6600008,1.08000112,-11.6699982],"max":[5.34999943,7.20000076,11.670002]},{"bufferView":1,"byteOffset":1098384,"componentType":5126,"count":186,"type":"VEC3"},{"bufferView":3,"byteOffset":407688,"componentType":5123,"count":246,"type":"SCALAR"},{"bufferView":0,"byteOffset":1100616,"componentType":5126,"count":6,"type":"VEC3","min":[-2.55500031,0.897004247,12.3900013],"max":[6.94499969,0.897004247,17.0700016]},{"bufferView":1,"byteOffset":1100616,"componentType":5126,"count":6,"type":"VEC3"},{"bufferView":2,"byteOffset":727608,"componentType":5126,"count":6,"type":"VEC2"},{"bufferView":3,"byteOffset":408180,"componentType":5123,"count":6,"type":"SCALAR"},{"bufferView":0,"byteOffset":1100688,"componentType":5126,"count":844,"type":"VEC3","min":[-9.80000114,-0.499994606,-14.2399998],"max":[5.99999905,8.51000118,19.1150017]},{"bufferView":1,"byteOffset":1100688,"componentType":5126,"count":844,"type":"VEC3"},{"bufferView":2,"byteOffset":727656,"componentType":5126,"count":844,"type":"VEC2"},{"bufferView":3,"byteOffset":408192,"componentType":5123,"count":1356,"type":"SCALAR"}],"samplers":[{"magFilter":9729,"minFilter":9987,"wrapS":33071,"wrapT":33071},{"magFilter":9729,"minFilter":9987},{"magFilter":9728,"minFilter":9984}],"images":[{"uri":"texture/Tree_1.ktx2"},{"uri":"texture/Tree_2.ktx2"},{"uri":"texture/Car_normal_min.ktx2"},{"uri":"texture/Car_defuse_min.ktx2"},{"uri":"texture/Car_metal_min-Car_roughness_min.ktx2"},{"uri":"texture/Bubble_defuse_min.ktx2"},{"uri":"texture/Ground_detail_stul_normal_min.ktx2"},{"uri":"texture/Ground_detail_stul_defuse_min.ktx2"},{"uri":"texture/Ground_concrete_defuse_min.ktx2"},{"uri":"texture/Ground_land_defuse_min.ktx2"},{"uri":"texture/Ground_wall_normal_min.ktx2"},{"uri":"texture/Ground_wall_defuse_min.ktx2"},{"uri":"texture/Ground_land_white.ktx2"},{"uri":"texture/Ground_rock_defuse_min.ktx2"},{"uri":"texture/Ground_leves_defuse_min.ktx2"},{"uri":"texture/Ground_grass_defuse_min.ktx2"},{"uri":"texture/Home_body_defuse_min.ktx2"},{"uri":"texture/Home_body_roughness_min.ktx2"},{"uri":"texture/Home_interior_min.ktx2"},{"uri":"texture/Home_detail_1_defuse_min2.ktx2"},{"uri":"texture/Home_detail_2_defuse_min.ktx2"},{"uri":"texture/Home_water_normal.ktx2"},{"uri":"texture/Home_water_defuse.ktx2"},{"uri":"texture/Home_body_color_defuse_min.ktx2"}],"textures":[{"sampler":0,"extensions":{"KHR_texture_basisu":{"source":0}}},{"sampler":0,"extensions":{"KHR_texture_basisu":{"source":1}}},{"sampler":1,"extensions":{"KHR_texture_basisu":{"source":2}}},{"sampler":1,"extensions":{"KHR_texture_basisu":{"source":3}}},{"sampler":1,"extensions":{"KHR_texture_basisu":{"source":4}}},{"sampler":1,"extensions":{"KHR_texture_basisu":{"source":5}}},{"sampler":1,"extensions":{"KHR_texture_basisu":{"source":6}}},{"sampler":1,"extensions":{"KHR_texture_basisu":{"source":7}}},{"sampler":1,"extensions":{"KHR_texture_basisu":{"source":8}}},{"sampler":2,"extensions":{"KHR_texture_basisu":{"source":9}}},{"sampler":1,"extensions":{"KHR_texture_basisu":{"source":10}}},{"sampler":1,"extensions":{"KHR_texture_basisu":{"source":11}}},{"sampler":1,"extensions":{"KHR_texture_basisu":{"source":12}}},{"sampler":1,"extensions":{"KHR_texture_basisu":{"source":13}}},{"sampler":1,"extensions":{"KHR_texture_basisu":{"source":14}}},{"sampler":0,"extensions":{"KHR_texture_basisu":{"source":15}}},{"sampler":1,"extensions":{"KHR_texture_basisu":{"source":16}}},{"sampler":1,"extensions":{"KHR_texture_basisu":{"source":17}}},{"sampler":1,"extensions":{"KHR_texture_basisu":{"source":18}}},{"sampler":0,"extensions":{"KHR_texture_basisu":{"source":19}}},{"sampler":1,"extensions":{"KHR_texture_basisu":{"source":20}}},{"sampler":1,"extensions":{"KHR_texture_basisu":{"source":21}}},{"sampler":1,"extensions":{"KHR_texture_basisu":{"source":22}}},{"sampler":1,"extensions":{"KHR_texture_basisu":{"source":23}}}],"materials":[{"name":"Tree_leves_1","pbrMetallicRoughness":{"baseColorTexture":{"index":0},"metallicFactor":0},"alphaMode":"MASK","doubleSided":true},{"name":"Tree_leves_2","pbrMetallicRoughness":{"baseColorTexture":{"index":1},"metallicFactor":0},"alphaMode":"MASK","doubleSided":true},{"name":"Car_body","pbrMetallicRoughness":{"baseColorTexture":{"index":3},"metallicRoughnessTexture":{"index":4}},"normalTexture":{"index":2},"doubleSided":true},{"name":"Car_glass","pbrMetallicRoughness":{"baseColorFactor":[0,0,0,0.300000012],"metallicFactor":0,"roughnessFactor":0},"alphaMode":"BLEND","doubleSided":true},{"name":"Bubble","pbrMetallicRoughness":{"baseColorTexture":{"index":5},"metallicFactor":0,"roughnessFactor":0}},{"name":"Ground_detail_stul","pbrMetallicRoughness":{"baseColorTexture":{"index":7},"metallicFactor":0,"roughnessFactor":0.899999976},"normalTexture":{"index":6},"doubleSided":true},{"name":"Ground_gray_concrete","pbrMetallicRoughness":{"baseColorTexture":{"index":8},"metallicFactor":0},"doubleSided":true},{"name":"Ground_land","pbrMetallicRoughness":{"baseColorTexture":{"index":9},"metallicFactor":0},"doubleSided":true},{"name":"Ground_wall","pbrMetallicRoughness":{"baseColorTexture":{"index":11},"metallicFactor":0},"normalTexture":{"index":10},"doubleSided":true},{"name":"Ground_land_white","pbrMetallicRoughness":{"baseColorTexture":{"index":12},"metallicFactor":0}},{"name":"Ground_rock","pbrMetallicRoughness":{"baseColorTexture":{"index":13},"metallicFactor":0},"doubleSided":true},{"name":"Ground_leves","pbrMetallicRoughness":{"baseColorTexture":{"index":14},"metallicFactor":0},"alphaMode":"MASK","doubleSided":true},{"name":"Ground_grass","pbrMetallicRoughness":{"baseColorTexture":{"index":15},"metallicFactor":0},"alphaMode":"MASK","doubleSided":true},{"name":"Home_body","pbrMetallicRoughness":{"baseColorTexture":{"index":16},"metallicFactor":0,"metallicRoughnessTexture":{"index":17}},"doubleSided":true},{"name":"Home_interior","pbrMetallicRoughness":{"baseColorTexture":{"index":18},"metallicFactor":0},"doubleSided":true},{"name":"Home_detail_1","pbrMetallicRoughness":{"baseColorTexture":{"index":19},"metallicFactor":0},"doubleSided":true},{"name":"Home_detail_2","pbrMetallicRoughness":{"baseColorTexture":{"index":20},"metallicFactor":0,"roughnessFactor":0.600000024},"doubleSided":true},{"name":"Home_window","pbrMetallicRoughness":{"baseColorFactor":[0,0,0,0.5],"metallicFactor":0,"roughnessFactor":0},"alphaMode":"BLEND","doubleSided":true},{"name":"Home_water","pbrMetallicRoughness":{"baseColorFactor":[1,1,1,0.600000024],"baseColorTexture":{"index":22},"metallicFactor":0,"roughnessFactor":0},"normalTexture":{"index":21},"alphaMode":"BLEND","doubleSided":true},{"name":"Home_body_color","pbrMetallicRoughness":{"baseColorTexture":{"index":23},"metallicFactor":0},"doubleSided":true}],"meshes":[{"primitives":[{"attributes":{"POSITION":0,"NORMAL":1,"TEXCOORD_0":2},"indices":3,"material":0}]},{"primitives":[{"attributes":{"POSITION":4,"NORMAL":5,"TEXCOORD_0":6},"indices":7,"material":1}]},{"primitives":[{"attributes":{"POSITION":8,"NORMAL":9,"TEXCOORD_0":10},"indices":11,"material":1}]},{"primitives":[{"attributes":{"POSITION":12,"NORMAL":13,"TEXCOORD_0":14},"indices":15,"material":1}]},{"primitives":[{"attributes":{"POSITION":16,"NORMAL":17,"TEXCOORD_0":18},"indices":19,"material":2},{"attributes":{"POSITION":20,"NORMAL":21},"indices":22,"material":3}]},{"primitives":[{"attributes":{"POSITION":23,"NORMAL":24,"TEXCOORD_0":25},"indices":26,"material":4}]},{"primitives":[{"attributes":{"POSITION":27,"NORMAL":28,"TEXCOORD_0":29},"indices":30,"material":5}]},{"primitives":[{"attributes":{"POSITION":31,"NORMAL":32,"TEXCOORD_0":33},"indices":34,"material":6}]},{"primitives":[{"attributes":{"POSITION":35,"NORMAL":36,"TEXCOORD_0":37},"indices":38,"material":7}]},{"primitives":[{"attributes":{"POSITION":39,"NORMAL":40,"TEXCOORD_0":41},"indices":42,"material":8}]},{"primitives":[{"attributes":{"POSITION":43,"NORMAL":44,"TEXCOORD_0":45},"indices":46,"material":9}]},{"primitives":[{"attributes":{"POSITION":47,"NORMAL":48,"TEXCOORD_0":49},"indices":50,"material":10}]},{"primitives":[{"attributes":{"POSITION":51,"NORMAL":52,"TEXCOORD_0":53},"indices":54,"material":11}]},{"primitives":[{"attributes":{"POSITION":55,"NORMAL":56,"TEXCOORD_0":57},"indices":58,"material":12}]},{"primitives":[{"attributes":{"POSITION":59,"NORMAL":60,"TEXCOORD_0":61},"indices":62,"material":13}]},{"primitives":[{"attributes":{"POSITION":63,"NORMAL":64,"TEXCOORD_0":65},"indices":66,"material":14}]},{"primitives":[{"attributes":{"POSITION":67,"NORMAL":68,"TEXCOORD_0":69},"indices":70,"material":15}]},{"primitives":[{"attributes":{"POSITION":71,"NORMAL":72,"TEXCOORD_0":73},"indices":74,"material":16}]},{"primitives":[{"attributes":{"POSITION":75,"NORMAL":76},"indices":77,"material":17}]},{"primitives":[{"attributes":{"POSITION":78,"NORMAL":79,"TEXCOORD_0":80},"indices":81,"material":18}]},{"primitives":[{"attributes":{"POSITION":82,"NORMAL":83,"TEXCOORD_0":84},"indices":85,"material":19}]}],"nodes":[{"mesh":0},{"mesh":0},{"mesh":0},{"mesh":0},{"mesh":0},{"mesh":0},{"mesh":0},{"mesh":1},{"mesh":1},{"mesh":1},{"mesh":1},{"mesh":1},{"mesh":1},{"mesh":1},{"mesh":1},{"mesh":1},{"mesh":2},{"mesh":3},{"mesh":4},{"mesh":5},{"mesh":6},{"mesh":7},{"mesh":8},{"mesh":9},{"mesh":10},{"mesh":11},{"mesh":12},{"mesh":13},{"mesh":14},{"mesh":15},{"mesh":16},{"mesh":17},{"mesh":18},{"mesh":19},{"mesh":20},{"name":"Tree_1.000","translation":[7.16555595,1,-16.8281288],"rotation":[-0.266291946,0.339658976,-0.883001506,0.184468687],"scale":[0.534000218,0.534000218,0.534000039],"children":[0]},{"name":"Tree_1.001","translation":[10.0442114,0.999999881,-8.84060574],"rotation":[0.908435881,-0.317500889,0.159208581,0.220431656],"scale":[0.384297669,0.384297758,0.384297669],"children":[1]},{"name":"Tree_1.002","translation":[-11.3639946,0.999999762,-17.3324986],"rotation":[0.908435881,-0.317500859,0.159208581,0.220431656],"scale":[0.455308318,0.455308408,0.455308288],"children":[2]},{"name":"Tree_1.003","translation":[9.0972271,0.999999881,26.6447449],"rotation":[0.908435881,-0.317500889,0.159208581,0.220431656],"scale":[0.391582429,0.391582489,0.3915824],"children":[3]},{"name":"Tree_1.004","translation":[1.60919142,0.999999881,26.2889423],"rotation":[-0.373183638,0.359820545,-0.843407929,0.141159996],"scale":[0.311621755,0.311621726,0.311621636],"children":[4]},{"name":"Tree_1.005","translation":[10.3625946,1,13.0561371],"rotation":[-0.598902464,0.385166675,-0.701369345,0.0323044807],"scale":[0.534000099,0.534000158,0.534000039],"children":[5]},{"name":"Tree_1.006","translation":[-3.07322788,0.99999994,-15.0431166],"rotation":[0.0693880171,0.25049448,-0.919667542,0.294362694],"scale":[0.384297729,0.384297729,0.38429755],"children":[6]},{"name":"Tree_2.000","translation":[2.04711819,1,-17.0243263],"rotation":[0.367696613,0.370351404,-0.291052818,0.80182749],"scale":[0.600000083,0.600000024,0.600000083],"children":[7]},{"name":"Tree_2.001","translation":[-14.3668327,1.00000012,-16.4775467],"rotation":[0.233443588,-0.847800076,0.406714469,0.24763383],"scale":[0.492793471,0.492793351,0.492793411],"children":[8]},{"name":"Tree_2.002","translation":[-7.87954712,1,-15.6218872],"rotation":[-0.0819463655,0.881570339,-0.461733013,0.054047998],"scale":[0.600000083,0.600000024,0.600000083],"children":[9]},{"name":"Tree_2.003","translation":[-3.42800498,1,23.2572975],"rotation":[0.296641022,0.533851445,-0.363203347,0.703626394],"scale":[0.512681127,0.512681127,0.512681127],"children":[10]},{"name":"Tree_2.004","translation":[6.72249413,1,22.9809437],"rotation":[0.468931139,-0.199897349,-0.00402081572,0.860307217],"scale":[0.352954268,0.352954179,0.352954209],"children":[11]},{"name":"Tree_2.005","translation":[6.44373798,1,26.0535011],"rotation":[0.468931139,-0.199897334,-0.00402081572,0.860307217],"scale":[0.458554834,0.458554685,0.458554775],"children":[12]},{"name":"Tree_2.006","translation":[-6.1978159,1,26.7132568],"rotation":[0.468931139,-0.199897349,-0.00402081572,0.860307217],"scale":[0.352954268,0.352954179,0.352954209],"children":[13]},{"name":"Tree_2.007","translation":[-4.86141062,1.00000012,-17.5974445],"rotation":[0.0236272644,0.847028375,-0.468352824,0.250260562],"scale":[0.388840616,0.388840646,0.388840646],"children":[14]},{"name":"Tree_2.008","translation":[1.44334948,1,-12.1130571],"rotation":[0.0236272644,0.847028375,-0.468352824,0.250260562],"scale":[0.399882048,0.399882048,0.399882078],"children":[15]},{"name":"Tree_2.009","translation":[9.81022644,0.999999762,20.1855659],"rotation":[0.468931139,-0.199897319,-0.00402081152,0.860307217],"scale":[0.469623208,0.469623029,0.469623148],"children":[16]},{"name":"Tree_2.010","translation":[10.6951275,1,-1.63660598],"rotation":[0.44296968,-0.477579266,0.153917119,0.742970705],"scale":[0.352954268,0.352954149,0.352954209],"children":[17]},{"name":"Car","translation":[-14.0759668,1.04859459,18.1272202],"rotation":[0,-1,0,7.54979013e-08],"scale":[0.0122787124,0.0122787124,0.0122787124],"children":[18]},{"name":"Bubble","translation":[1.66644001,1.12754583,18.8868504],"scale":[0.462953538,0.462953538,0.462953538],"children":[19]},{"name":"Stul","translation":[-1.33213305,1.04500008,13.7690859],"rotation":[0,-0.17671065,0,0.984262824],"scale":[1.3525008,1.3525008,1.3525008],"children":[20]},{"name":"Ground_concrete","translation":[-2.26441383,0,3.05695891],"children":[21]},{"name":"Ground_land","translation":[-2.26441383,0,3.05695891],"children":[22]},{"name":"Ground_wall","translation":[-2.26441383,0,3.05695891],"rotation":[0.00731857959,0.707068801,0.00731858052,0.70706898],"scale":[0.812915087,0.812915146,0.812915027],"children":[23]},{"name":"Ground_land_white","translation":[-2.26441383,0,3.05695891],"children":[24]},{"name":"Ground_rock","translation":[7.26602697,1.24305117,17.6967697],"rotation":[0.621729672,0.174422666,0.749738395,0.144641921],"children":[25]},{"name":"Ground_leves","translation":[-14.062438,1.07000005,-14.1365528],"rotation":[0,0.0821799189,0,0.996617496],"scale":[4.60987425,4.60987377,4.60987425],"children":[26]},{"name":"Ground_grass","translation":[-3.62124443,1,22.174921],"rotation":[0.633718669,-0.313688874,0.313688874,0.63371861],"scale":[1.15613031,1.15613067,0.626478791],"children":[27]},{"name":"Home_body","translation":[-2.26441383,0,3.05695891],"rotation":[-1,0,0,4.37113883e-08],"scale":[-1,-1,-1],"children":[28]},{"name":"Home_interior","translation":[-2.26441383,0,3.05695891],"rotation":[-1,0,0,4.37113883e-08],"scale":[-1,-1,-1],"children":[29]},{"name":"Home_detail_1","translation":[-2.26441383,0,3.05695891],"rotation":[-1,0,0,4.37113883e-08],"scale":[-1,-1,-1],"children":[30]},{"name":"Home_detail_2","translation":[-2.26441383,0,3.05695891],"rotation":[-1,0,0,4.37113883e-08],"scale":[-1,-1,-1],"children":[31]},{"name":"Home_window","translation":[-2.26441383,0,3.05695891],"rotation":[-1,0,0,4.37113883e-08],"scale":[-1,-1,-1],"children":[32]},{"name":"Home_water","translation":[-2.26441383,0,3.05695891],"children":[33]},{"name":"Home_body_color","translation":[-2.26441383,0,3.05695891],"rotation":[-1,0,0,4.37113883e-08],"scale":[-1,-1,-1],"children":[34]}],"scenes":[{"name":"Home","nodes":[35,36,37,38,39,40,41,42,43,44,45,46,47,48,49,50,51,52,53,54,55,56,57,58,59,60,61,62,63,64,65,66,67,68,69]}],"scene":0}
